<mxfile host="app.diagrams.net" agent="Mozilla/5.0 (Windows NT 10.0; Win64; x64) AppleWebKit/537.36 (KHTML, like Gecko) Chrome/129.0.0.0 Safari/537.36" version="24.7.17">
  <diagram name="Page-1" id="SlxrFVlS3C5YTIPWvxdO">
    <mxGraphModel dx="934" dy="485" grid="1" gridSize="10" guides="1" tooltips="1" connect="1" arrows="1" fold="1" page="1" pageScale="1" pageWidth="850" pageHeight="1100" math="1" shadow="0">
      <root>
        <mxCell id="0" />
        <mxCell id="1" parent="0" />
        <mxCell id="SL_BVd_fDtfBPRzOz9aE-9" value="" style="shape=parallelogram;perimeter=parallelogramPerimeter;whiteSpace=wrap;html=1;fixedSize=1;" vertex="1" parent="1">
          <mxGeometry x="270" y="208" width="70" height="20" as="geometry" />
        </mxCell>
        <mxCell id="SL_BVd_fDtfBPRzOz9aE-10" value="" style="shape=parallelogram;perimeter=parallelogramPerimeter;whiteSpace=wrap;html=1;fixedSize=1;" vertex="1" parent="1">
          <mxGeometry x="270" y="198" width="70" height="20" as="geometry" />
        </mxCell>
        <mxCell id="SL_BVd_fDtfBPRzOz9aE-11" value="" style="shape=parallelogram;perimeter=parallelogramPerimeter;whiteSpace=wrap;html=1;fixedSize=1;" vertex="1" parent="1">
          <mxGeometry x="270" y="187" width="70" height="20" as="geometry" />
        </mxCell>
        <mxCell id="SL_BVd_fDtfBPRzOz9aE-12" value="" style="shape=parallelogram;perimeter=parallelogramPerimeter;whiteSpace=wrap;html=1;fixedSize=1;" vertex="1" parent="1">
          <mxGeometry x="270" y="176" width="70" height="20" as="geometry" />
        </mxCell>
        <mxCell id="SL_BVd_fDtfBPRzOz9aE-13" value="" style="shape=parallelogram;perimeter=parallelogramPerimeter;whiteSpace=wrap;html=1;fixedSize=1;" vertex="1" parent="1">
          <mxGeometry x="270" y="165" width="70" height="20" as="geometry" />
        </mxCell>
        <mxCell id="SL_BVd_fDtfBPRzOz9aE-14" value="" style="shape=parallelogram;perimeter=parallelogramPerimeter;whiteSpace=wrap;html=1;fixedSize=1;" vertex="1" parent="1">
          <mxGeometry x="270" y="153" width="70" height="20" as="geometry" />
        </mxCell>
        <mxCell id="SL_BVd_fDtfBPRzOz9aE-15" value="" style="endArrow=classic;startArrow=classic;html=1;rounded=0;" edge="1" parent="1">
          <mxGeometry width="50" height="50" relative="1" as="geometry">
            <mxPoint x="250" y="225" as="sourcePoint" />
            <mxPoint x="250" y="155" as="targetPoint" />
            <Array as="points">
              <mxPoint x="250" y="187" />
            </Array>
          </mxGeometry>
        </mxCell>
        <mxCell id="SL_BVd_fDtfBPRzOz9aE-16" value="1 mm" style="text;html=1;align=center;verticalAlign=middle;resizable=0;points=[];autosize=1;strokeColor=none;fillColor=none;" vertex="1" parent="1">
          <mxGeometry x="204" y="173" width="50" height="30" as="geometry" />
        </mxCell>
        <mxCell id="SL_BVd_fDtfBPRzOz9aE-20" value="0" style="text;html=1;align=center;verticalAlign=middle;whiteSpace=wrap;rounded=0;fontSize=8;" vertex="1" parent="1">
          <mxGeometry x="251" y="153" width="60" height="30" as="geometry" />
        </mxCell>
        <mxCell id="SL_BVd_fDtfBPRzOz9aE-21" value="1" style="text;html=1;align=center;verticalAlign=middle;whiteSpace=wrap;rounded=0;fontSize=8;" vertex="1" parent="1">
          <mxGeometry x="251" y="165" width="60" height="30" as="geometry" />
        </mxCell>
        <mxCell id="SL_BVd_fDtfBPRzOz9aE-22" value="..." style="text;html=1;align=center;verticalAlign=middle;whiteSpace=wrap;rounded=0;fontSize=8;" vertex="1" parent="1">
          <mxGeometry x="251" y="176" width="60" height="30" as="geometry" />
        </mxCell>
        <mxCell id="SL_BVd_fDtfBPRzOz9aE-25" value="..." style="text;html=1;align=center;verticalAlign=middle;whiteSpace=wrap;rounded=0;fontSize=8;" vertex="1" parent="1">
          <mxGeometry x="251" y="187" width="60" height="30" as="geometry" />
        </mxCell>
        <mxCell id="SL_BVd_fDtfBPRzOz9aE-26" value="..." style="text;html=1;align=center;verticalAlign=middle;whiteSpace=wrap;rounded=0;fontSize=8;" vertex="1" parent="1">
          <mxGeometry x="251" y="198" width="60" height="30" as="geometry" />
        </mxCell>
        <mxCell id="SL_BVd_fDtfBPRzOz9aE-27" value="11" style="text;html=1;align=center;verticalAlign=middle;whiteSpace=wrap;rounded=0;fontSize=8;" vertex="1" parent="1">
          <mxGeometry x="251" y="208" width="60" height="30" as="geometry" />
        </mxCell>
        <mxCell id="SL_BVd_fDtfBPRzOz9aE-28" value="" style="endArrow=classic;startArrow=classic;html=1;rounded=0;" edge="1" parent="1">
          <mxGeometry width="50" height="50" relative="1" as="geometry">
            <mxPoint x="250" y="149" as="sourcePoint" />
            <mxPoint x="250" y="109" as="targetPoint" />
          </mxGeometry>
        </mxCell>
        <mxCell id="SL_BVd_fDtfBPRzOz9aE-29" value="Acceleration buffer" style="text;html=1;align=right;verticalAlign=middle;whiteSpace=wrap;rounded=0;" vertex="1" parent="1">
          <mxGeometry x="175" y="117" width="60" height="30" as="geometry" />
        </mxCell>
        <mxCell id="SL_BVd_fDtfBPRzOz9aE-31" value="" style="endArrow=classic;startArrow=classic;html=1;rounded=0;" edge="1" parent="1">
          <mxGeometry width="50" height="50" relative="1" as="geometry">
            <mxPoint x="250" y="270" as="sourcePoint" />
            <mxPoint x="250" y="230" as="targetPoint" />
          </mxGeometry>
        </mxCell>
        <mxCell id="SL_BVd_fDtfBPRzOz9aE-32" value="Acceleration buffer" style="text;html=1;align=right;verticalAlign=middle;whiteSpace=wrap;rounded=0;" vertex="1" parent="1">
          <mxGeometry x="178" y="234" width="60" height="30" as="geometry" />
        </mxCell>
        <mxCell id="SL_BVd_fDtfBPRzOz9aE-34" value="" style="shape=flexArrow;endArrow=classic;html=1;rounded=0;fillColor=#000000;" edge="1" parent="1">
          <mxGeometry width="50" height="50" relative="1" as="geometry">
            <mxPoint x="360" y="190.64" as="sourcePoint" />
            <mxPoint x="400" y="190.64" as="targetPoint" />
          </mxGeometry>
        </mxCell>
        <mxCell id="SL_BVd_fDtfBPRzOz9aE-35" value="&lt;h1&gt;Images&lt;/h1&gt;" style="text;html=1;align=center;verticalAlign=middle;whiteSpace=wrap;rounded=0;" vertex="1" parent="1">
          <mxGeometry x="275" y="60" width="60" height="30" as="geometry" />
        </mxCell>
        <mxCell id="SL_BVd_fDtfBPRzOz9aE-37" value="" style="endArrow=classic;html=1;rounded=0;endSize=2;" edge="1" parent="1">
          <mxGeometry width="50" height="50" relative="1" as="geometry">
            <mxPoint x="101" y="266.5" as="sourcePoint" />
            <mxPoint x="130" y="245" as="targetPoint" />
          </mxGeometry>
        </mxCell>
        <mxCell id="SL_BVd_fDtfBPRzOz9aE-38" value="" style="endArrow=classic;html=1;rounded=0;endSize=3;" edge="1" parent="1">
          <mxGeometry width="50" height="50" relative="1" as="geometry">
            <mxPoint x="101" y="266.5" as="sourcePoint" />
            <mxPoint x="151" y="266.5" as="targetPoint" />
          </mxGeometry>
        </mxCell>
        <mxCell id="SL_BVd_fDtfBPRzOz9aE-39" value="" style="endArrow=classic;html=1;rounded=0;endSize=2;" edge="1" parent="1">
          <mxGeometry width="50" height="50" relative="1" as="geometry">
            <mxPoint x="101" y="265.5" as="sourcePoint" />
            <mxPoint x="101" y="216.5" as="targetPoint" />
          </mxGeometry>
        </mxCell>
        <mxCell id="SL_BVd_fDtfBPRzOz9aE-40" value="Z" style="text;html=1;align=center;verticalAlign=middle;whiteSpace=wrap;rounded=0;" vertex="1" parent="1">
          <mxGeometry x="90" y="207" width="10" height="10" as="geometry" />
        </mxCell>
        <mxCell id="SL_BVd_fDtfBPRzOz9aE-41" value="X" style="text;html=1;align=center;verticalAlign=middle;whiteSpace=wrap;rounded=0;" vertex="1" parent="1">
          <mxGeometry x="150" y="264" width="10" height="19" as="geometry" />
        </mxCell>
        <mxCell id="SL_BVd_fDtfBPRzOz9aE-42" value="Y" style="text;html=1;align=center;verticalAlign=middle;whiteSpace=wrap;rounded=0;" vertex="1" parent="1">
          <mxGeometry x="130" y="234" width="10" height="13" as="geometry" />
        </mxCell>
        <mxCell id="SL_BVd_fDtfBPRzOz9aE-44" value="&lt;h1&gt;Focus Thread&lt;/h1&gt;" style="text;html=1;align=center;verticalAlign=middle;whiteSpace=wrap;rounded=0;" vertex="1" parent="1">
          <mxGeometry x="480" y="60" width="60" height="30" as="geometry" />
        </mxCell>
        <mxCell id="SL_BVd_fDtfBPRzOz9aE-50" value="FIND NVAR CITATION" style="text;html=1;align=center;verticalAlign=middle;resizable=0;points=[];autosize=1;strokeColor=none;fillColor=none;" vertex="1" parent="1">
          <mxGeometry x="450" y="157" width="140" height="30" as="geometry" />
        </mxCell>
      </root>
    </mxGraphModel>
  </diagram>
</mxfile>
